
<svg xmlns="http://www.w3.org/2000/svg" width="323" height="266" viewBox="0 0 323 266">
<g>
<path d="M 183.36 192.39 C178.44,194.70 176.16,195.40 174.00,195.45 C171.55,195.50 171.49,195.68 171.21,204.25 L 170.97 211.54 L 171.21 203.75 L 171.50 194.50 L 177.39 193.77 C179.47,193.51 181.47,193.04 183.36,192.39 ZM 199.00 178.51 C197.52,182.02 195.07,185.23 191.87,187.70 C195.04,185.14 197.51,181.97 199.00,178.51 Z" fill="rgba(226,150,52,1)"/>
<path d="M 143.00 241.62 C124.13,237.87 109.95,230.66 96.79,218.13 C82.97,204.99 75.19,191.97 70.85,174.73 C67.62,161.92 68.34,135.09 72.11,127.76 C72.60,126.81 73.00,125.23 73.00,124.26 C73.00,121.51 78.37,110.85 83.81,102.78 C89.72,94.03 103.78,80.49 110.59,77.00 C113.27,75.62 116.07,73.94 116.80,73.25 C117.54,72.56 119.35,71.72 120.82,71.36 C122.29,71.01 124.00,70.33 124.61,69.85 C129.42,66.09 151.29,62.44 163.70,63.32 C202.48,66.09 234.90,92.83 245.14,130.50 C246.91,136.99 247.32,141.23 247.32,153.00 C247.32,164.77 246.91,169.01 245.14,175.50 C236.50,207.29 211.86,231.89 180.50,240.05 C170.45,242.67 152.11,243.43 143.00,241.62 ZM 151.00 204.61 C151.00,195.49 151.31,195.00 157.08,195.00 L 160.00 195.00 L 160.00 204.00 L 160.00 213.00 L 165.46 213.00 L 170.92 213.00 L 171.21 204.25 C171.49,195.68 171.55,195.50 174.00,195.45 C176.75,195.39 179.70,194.27 188.00,190.13 C197.31,185.49 202.47,175.17 200.02,166.09 C198.55,160.62 194.99,155.80 190.72,153.50 C186.58,151.27 186.03,149.59 188.96,148.02 C192.37,146.20 195.97,140.48 196.60,135.90 C197.51,129.23 195.46,123.20 190.63,118.37 C186.58,114.32 183.68,113.07 174.75,111.55 L 171.00 110.91 L 171.00 101.95 L 171.00 93.00 L 165.54 93.00 L 160.08 93.00 L 159.79 101.75 L 159.50 110.50 L 155.25 110.81 L 151.00 111.11 L 151.00 102.06 L 151.00 93.00 L 146.00 93.00 L 141.00 93.00 L 141.00 102.00 L 141.00 111.00 L 128.50 111.00 L 116.00 111.00 L 116.00 118.00 L 116.00 125.00 L 120.89 125.00 C124.21,125.00 126.53,125.61 128.14,126.91 L 130.50 128.83 L 130.49 153.01 L 130.49 177.19 L 128.13 179.09 C126.62,180.32 124.22,181.00 121.39,181.00 C117.44,181.00 117.00,181.24 117.00,183.36 C117.00,184.66 116.72,187.79 116.37,190.33 L 115.74 194.94 L 128.12 195.22 L 140.50 195.50 L 140.79 204.25 L 141.08 213.00 L 146.04 213.00 L 151.00 213.00 L 151.00 204.61 ZM 151.61 179.42 C151.27,178.55 151.00,173.60 151.00,168.42 C151.00,158.25 150.71,158.73 157.00,158.73 C168.94,158.73 170.11,158.96 173.08,161.92 C175.52,164.37 176.00,165.66 176.00,169.81 C176.00,178.29 171.84,180.85 157.86,180.96 C153.61,180.99 152.06,180.61 151.61,179.42 ZM 151.75 143.42 C150.50,142.16 150.88,127.52 152.20,126.20 C153.79,124.61 161.38,124.70 167.00,126.36 C172.36,127.95 174.43,131.18 173.45,136.42 C172.40,142.03 169.95,143.45 160.65,143.84 C156.17,144.03 152.16,143.84 151.75,143.42 Z" fill="rgba(246,146,27,1)"/>
</g>
</svg>