
<svg xmlns="http://www.w3.org/2000/svg" width="666" height="375" viewBox="0 0 666 375">
<g>
<path d="M 315.17 302.05 C287.77,297.14 267.29,285.95 248.12,265.42 C234.52,250.85 226.91,236.72 220.45,214.00 C217.94,205.19 217.35,177.56 219.45,167.00 C222.47,151.81 231.03,130.52 236.94,123.50 C237.87,122.40 239.37,120.31 240.27,118.86 C245.48,110.45 262.26,95.49 274.79,88.08 C301.54,72.26 340.87,68.42 370.88,78.71 C387.97,84.57 409.53,98.92 419.49,111.07 C426.43,119.54 430.25,124.92 434.73,132.50 C436.02,134.69 437.28,137.18 438.48,139.90 C438.29,139.53 438.12,139.22 437.97,139.00 C436.34,136.62 437.96,142.78 440.27,147.79 C441.36,150.15 442.44,151.89 442.66,151.67 C442.73,151.60 442.72,151.34 442.63,150.94 C444.64,157.18 446.30,163.97 447.44,170.75 C452.05,198.09 445.25,227.29 428.37,252.66 C422.38,261.65 408.89,275.49 399.34,282.42 C376.08,299.31 342.97,307.03 315.17,302.05 ZM 369.55 251.87 C378.54,247.64 386.00,236.14 386.00,226.50 C386.00,217.47 379.34,206.30 371.55,202.27 C367.66,200.25 359.34,198.03 355.65,198.01 C351.96,198.00 346.00,192.22 346.00,188.67 C346.00,181.79 349.56,178.76 359.00,177.60 C377.29,175.35 389.60,158.49 385.01,141.97 C381.05,127.71 366.40,118.98 351.59,122.06 C340.36,124.39 333.57,131.17 330.47,143.13 C328.93,149.04 328.94,149.88 330.55,155.98 C331.50,159.57 332.95,163.68 333.78,165.12 C337.12,170.97 331.69,180.00 324.82,180.00 C322.35,180.00 320.31,178.48 313.65,171.65 C303.99,161.75 298.86,159.42 288.58,160.24 C273.68,161.44 263.00,172.43 263.00,186.58 C263.00,196.43 265.40,202.23 272.00,208.34 C278.28,214.16 282.90,216.01 291.12,215.99 C297.98,215.98 305.57,212.54 310.51,207.19 C312.54,204.99 315.68,201.58 317.50,199.60 C319.95,196.93 321.61,196.00 323.95,196.00 C329.10,196.00 332.78,198.52 334.11,202.96 C335.15,206.44 335.02,207.53 332.99,212.20 C329.55,220.16 329.12,230.52 331.97,237.23 C338.43,252.44 354.78,258.81 369.55,251.87 Z" fill="rgba(1,105,251,1)"/>
<path d="M 440.27 147.79 C437.96,142.78 436.34,136.62 437.97,139.00 C439.42,141.13 443.15,151.18 442.66,151.67 C442.44,151.89 441.36,150.15 440.27,147.79 Z" fill="rgba(23,98,202,1)"/>
</g>
</svg>