
<svg xmlns="http://www.w3.org/2000/svg" width="499" height="500" viewBox="0 0 499 500">
<g>
<path d="M 217.50 486.93 C214.75,486.47 209.12,485.58 205.00,484.97 C189.28,482.61 163.00,474.26 145.92,466.19 C120.04,453.96 99.12,439.22 78.99,419.04 C67.84,407.86 48.00,383.82 48.00,381.48 C48.00,381.14 46.94,379.43 45.64,377.68 C42.79,373.84 29.66,348.82 27.64,343.38 C26.84,341.25 25.02,336.35 23.59,332.50 C19.28,320.92 14.18,301.04 11.92,287.00 C10.21,276.39 9.65,241.83 10.98,228.50 C13.81,200.02 24.96,165.41 39.87,138.82 C56.67,108.87 84.59,78.76 114.35,58.50 C137.08,43.02 172.10,28.28 196.50,23.90 C210.86,21.33 214.73,20.88 229.00,20.08 C264.50,18.09 288.75,21.03 320.00,31.11 C348.96,40.45 380.62,58.51 400.49,77.01 C402.69,79.06 405.90,82.04 407.62,83.62 C410.88,86.63 423.70,100.42 428.00,105.55 C434.63,113.45 442.15,124.41 449.22,136.50 C453.20,143.30 455.49,147.95 463.05,164.50 C469.25,178.07 475.24,200.68 477.90,220.50 C481.92,250.47 481.93,255.68 477.93,286.50 C473.29,322.32 460.15,355.84 438.31,387.52 C415.70,420.32 384.78,446.91 349.50,463.91 C329.58,473.51 323.84,475.66 304.50,480.80 C294.25,483.52 290.15,484.32 272.92,486.98 C265.14,488.18 224.70,488.15 217.50,486.93 ZM 235.36 373.01 C236.54,373.48 241.38,373.90 246.12,373.94 C253.38,373.99 255.14,373.67 257.37,371.93 C259.97,369.88 260.00,369.70 260.00,356.99 C260.00,349.37 260.41,343.86 261.01,343.49 C261.57,343.15 265.21,341.98 269.10,340.90 C279.21,338.10 285.51,334.64 293.50,327.48 C298.56,322.94 301.36,319.45 303.62,314.85 C308.68,304.58 309.08,303.15 309.67,293.09 C310.38,281.32 308.33,272.03 303.32,264.17 C295.74,252.28 284.49,246.24 261.98,241.96 C234.57,236.75 229.94,235.64 224.96,233.14 C222.07,231.69 218.36,228.84 216.73,226.82 C214.02,223.45 213.75,222.44 213.67,215.21 C213.58,206.59 214.43,204.48 220.20,198.96 C226.48,192.95 243.08,190.31 254.86,193.45 C264.73,196.08 269.48,200.39 273.56,210.43 C276.23,217.00 278.31,217.97 289.80,217.99 C298.34,218.00 299.29,217.80 301.55,215.55 C304.43,212.66 304.54,211.18 302.39,203.93 C299.69,194.85 296.47,189.67 289.39,183.05 C282.37,176.48 276.05,172.98 267.50,170.92 C264.75,170.25 261.94,169.27 261.25,168.73 C260.37,168.05 260.00,164.14 260.00,155.60 C260.00,146.82 260.05,142.68 258.01,140.73 C256.15,138.95 252.53,139.00 245.51,139.00 C238.24,139.00 234.41,138.97 232.35,140.86 C230.04,142.99 229.97,147.56 229.75,157.37 L 229.50 168.24 L 220.41 170.93 C209.63,174.13 204.20,177.13 196.44,184.23 C182.19,197.25 178.17,221.02 187.08,239.63 C192.88,251.77 208.03,260.79 229.59,264.96 C235.59,266.12 245.23,267.98 251.00,269.10 C271.65,273.10 278.15,278.52 278.39,291.94 C278.53,300.16 276.07,306.85 271.41,310.95 C262.04,319.17 248.88,321.82 234.06,318.44 C221.46,315.58 214.11,308.86 209.97,296.42 C208.78,292.84 207.01,289.54 205.98,288.99 C204.96,288.45 199.36,288.00 193.52,288.00 C183.59,288.00 182.75,288.16 180.45,290.45 C177.38,293.53 177.38,295.97 180.43,304.99 C183.66,314.54 188.42,322.24 194.46,327.71 C201.87,334.39 215.29,340.63 226.25,342.46 L 230.00 343.09 L 230.00 355.32 C230.00,368.38 230.85,371.19 235.36,373.01 ZM 295.00 424.21 C296.91,424.81 301.61,423.52 310.77,419.89 C377.70,393.33 422.04,327.76 422.01,255.41 C422.00,234.69 418.42,215.29 410.78,194.52 C397.56,158.56 372.39,127.44 339.73,106.67 C325.14,97.39 302.96,88.00 295.63,88.00 C290.19,88.00 289.00,90.54 289.00,102.09 C289.00,114.16 289.75,115.26 301.67,120.50 C313.92,125.88 320.00,129.32 331.00,137.07 C340.92,144.06 358.33,161.19 363.45,169.00 C365.07,171.48 367.18,174.40 368.13,175.50 C370.46,178.21 380.33,197.60 383.00,204.72 C385.38,211.08 387.21,217.70 389.72,229.00 C391.83,238.49 392.13,272.60 390.18,281.00 C387.20,293.82 386.66,295.84 384.41,302.60 C380.56,314.17 374.31,326.85 367.20,337.50 C359.11,349.61 341.00,368.18 329.37,376.30 C321.78,381.59 297.93,394.00 295.34,394.00 C294.70,394.00 293.01,395.38 291.59,397.08 C289.19,399.93 289.00,400.87 289.00,409.90 C289.00,418.74 289.21,419.84 291.25,421.70 C292.49,422.82 294.17,423.96 295.00,424.21 ZM 185.00 421.60 C190.23,423.46 194.81,424.98 195.19,424.99 C195.58,425.00 197.15,423.91 198.69,422.59 C201.42,420.25 201.50,419.88 201.50,410.29 C201.50,399.59 199.96,395.33 195.71,394.21 C191.18,393.03 171.06,382.53 163.19,377.25 C133.20,357.13 110.99,325.39 102.50,290.54 C100.25,281.32 98.02,264.10 98.02,256.00 C98.02,247.90 100.25,230.68 102.50,221.46 C109.38,193.23 124.69,167.63 146.49,147.92 C160.14,135.57 170.36,129.11 191.12,119.69 C198.21,116.47 198.87,115.91 200.49,111.68 C202.88,105.42 202.32,93.12 199.51,90.01 C196.97,87.21 191.31,87.66 181.50,91.43 C152.59,102.56 125.50,122.60 106.39,147.00 C90.59,167.17 79.10,190.58 73.42,214.17 C67.39,239.26 67.36,271.32 73.35,297.00 C84.10,343.10 115.21,384.58 157.24,408.85 C167.98,415.05 172.82,417.28 185.00,421.60 Z" fill="rgba(39,116,201,1)"/>
<path d="M 185.00 421.60 C172.82,417.28 167.98,415.05 157.24,408.85 C115.21,384.58 84.10,343.10 73.35,297.00 C67.36,271.32 67.39,239.26 73.42,214.17 C79.10,190.58 90.59,167.17 106.39,147.00 C125.50,122.60 152.59,102.56 181.50,91.43 C191.31,87.66 196.97,87.21 199.51,90.01 C202.32,93.12 202.88,105.42 200.49,111.68 C198.87,115.91 198.21,116.47 191.12,119.69 C170.36,129.11 160.14,135.57 146.49,147.92 C124.69,167.63 109.38,193.23 102.50,221.46 C100.25,230.68 98.02,247.90 98.02,256.00 C98.02,264.10 100.25,281.32 102.50,290.54 C110.99,325.39 133.20,357.13 163.19,377.25 C171.06,382.53 191.18,393.03 195.71,394.21 C199.96,395.33 201.50,399.59 201.50,410.29 C201.50,419.88 201.42,420.25 198.69,422.59 C197.15,423.91 195.58,425.00 195.19,424.99 C194.81,424.98 190.23,423.46 185.00,421.60 ZM 295.00 424.21 C294.17,423.96 292.49,422.82 291.25,421.70 C289.21,419.84 289.00,418.74 289.00,409.90 C289.00,400.87 289.19,399.93 291.59,397.08 C293.01,395.38 294.70,394.00 295.34,394.00 C297.93,394.00 321.78,381.59 329.37,376.30 C341.00,368.18 359.11,349.61 367.20,337.50 C374.31,326.85 380.56,314.17 384.41,302.60 C386.66,295.84 387.20,293.82 390.18,281.00 C392.13,272.60 391.83,238.49 389.72,229.00 C387.21,217.70 385.38,211.08 383.00,204.72 C380.33,197.60 370.46,178.21 368.13,175.50 C367.18,174.40 365.07,171.48 363.45,169.00 C358.33,161.19 340.92,144.06 331.00,137.07 C320.00,129.32 313.92,125.88 301.67,120.50 C289.75,115.26 289.00,114.16 289.00,102.09 C289.00,90.54 290.19,88.00 295.63,88.00 C302.96,88.00 325.14,97.39 339.73,106.67 C372.39,127.44 397.56,158.56 410.78,194.52 C418.42,215.29 422.00,234.69 422.01,255.41 C422.04,327.76 377.70,393.33 310.77,419.89 C301.61,423.52 296.91,424.81 295.00,424.21 ZM 235.36 373.01 C230.85,371.19 230.00,368.38 230.00,355.32 L 230.00 343.09 L 226.25 342.46 C215.29,340.63 201.87,334.39 194.46,327.71 C188.42,322.24 183.66,314.54 180.43,304.99 C177.38,295.97 177.38,293.53 180.45,290.45 C182.75,288.16 183.59,288.00 193.52,288.00 C199.36,288.00 204.96,288.45 205.98,288.99 C207.01,289.54 208.78,292.84 209.97,296.42 C214.11,308.86 221.46,315.58 234.06,318.44 C248.88,321.82 262.04,319.17 271.41,310.95 C276.07,306.85 278.53,300.16 278.39,291.94 C278.15,278.52 271.65,273.10 251.00,269.10 C245.23,267.98 235.59,266.12 229.59,264.96 C208.03,260.79 192.88,251.77 187.08,239.63 C178.17,221.02 182.19,197.25 196.44,184.23 C204.20,177.13 209.63,174.13 220.41,170.93 L 229.50 168.24 L 229.75 157.37 C230.17,138.85 230.04,139.00 245.51,139.00 C260.19,139.00 260.00,138.78 260.00,155.60 C260.00,164.14 260.37,168.05 261.25,168.73 C261.94,169.27 264.75,170.25 267.50,170.92 C276.05,172.98 282.37,176.48 289.39,183.05 C296.47,189.67 299.69,194.85 302.39,203.93 C304.54,211.18 304.43,212.66 301.55,215.55 C299.29,217.80 298.34,218.00 289.80,217.99 C278.31,217.97 276.23,217.00 273.56,210.43 C269.48,200.39 264.73,196.08 254.86,193.45 C243.08,190.31 226.48,192.95 220.20,198.96 C214.43,204.48 213.58,206.59 213.67,215.21 C213.75,222.44 214.02,223.45 216.73,226.82 C218.36,228.84 222.07,231.69 224.96,233.14 C229.94,235.64 234.57,236.75 261.98,241.96 C284.49,246.24 295.74,252.28 303.32,264.17 C308.33,272.03 310.38,281.32 309.67,293.09 C309.08,303.15 308.68,304.58 303.62,314.85 C301.36,319.45 298.56,322.94 293.50,327.48 C285.51,334.64 279.21,338.10 269.10,340.90 C265.21,341.98 261.57,343.15 261.01,343.49 C260.41,343.86 260.00,349.37 260.00,356.99 C260.00,369.70 259.97,369.88 257.37,371.93 C255.14,373.67 253.38,373.99 246.12,373.94 C241.38,373.90 236.54,373.48 235.36,373.01 Z" fill="rgba(250,253,253,1)"/>
</g>
</svg>