
<svg xmlns="http://www.w3.org/2000/svg" width="200" height="200" viewBox="0 0 200 200">
<g>
<path d="M 94.50 178.42 C92.85,177.03 82.50,167.02 71.50,156.17 C60.50,145.32 39.91,125.12 25.75,111.28 C8.85,94.76 0.00,85.41 0.00,84.08 C0.00,82.97 1.30,80.13 2.88,77.78 C7.70,70.63 14.31,60.19 23.00,46.00 C36.01,24.77 37.27,22.83 39.39,20.86 C41.28,19.09 44.28,19.00 100.04,19.00 C139.24,19.00 159.72,19.36 161.78,20.07 C164.04,20.86 165.95,22.98 168.93,28.00 C171.17,31.77 173.00,35.27 173.00,35.79 C173.00,36.31 173.85,37.81 174.88,39.13 C175.92,40.44 178.06,43.83 179.63,46.65 C180.67,48.51 183.30,53.06 186.34,58.30 C185.80,57.48 185.44,57.00 185.33,57.00 C185.11,57.00 185.40,57.87 185.96,58.93 C186.53,60.00 187.00,61.63 187.00,62.56 C187.00,63.50 188.57,66.00 190.50,68.13 C192.43,70.26 194.00,72.43 194.00,72.95 C194.00,73.46 194.96,75.51 196.12,77.49 C197.29,79.47 198.45,80.88 198.70,80.63 C198.72,80.62 198.72,80.57 198.70,80.51 C199.52,82.24 200.00,83.45 200.00,83.87 C200.00,85.07 198.54,87.67 196.75,89.64 C193.28,93.47 135.62,149.70 115.12,169.25 C101.56,182.19 99.88,182.93 94.50,178.42 ZM 89.79 136.25 C90.52,137.13 93.46,137.40 99.66,137.16 C112.62,136.66 112.55,135.00 99.58,135.00 L 111.00 135.00 L 111.00 108.25 L 111.06 121.88 C111.11,132.04 111.38,134.86 112.13,133.00 C112.68,131.62 113.06,126.22 112.98,121.00 C112.89,115.78 112.86,110.94 112.91,110.25 C112.96,109.49 114.47,108.99 116.75,108.98 C118.81,108.98 121.18,108.53 122.00,108.00 C123.03,107.33 122.82,107.08 121.03,107.03 C123.00,106.85 125.12,106.67 127.00,106.53 C135.90,105.86 143.28,103.62 147.75,100.23 C149.51,98.89 150.32,98.22 150.68,96.62 C150.35,98.20 149.66,98.88 148.25,99.97 C146.15,101.61 146.03,101.85 147.75,101.02 C151.51,99.20 152.86,96.01 152.78,89.11 C152.72,83.63 152.34,82.32 150.11,79.99 C148.67,78.49 144.87,76.31 141.66,75.13 C135.09,72.73 134.00,72.57 134.00,74.00 C134.00,74.31 134.20,74.58 134.52,74.77 C130.69,73.85 126.53,73.12 122.48,72.68 C126.42,72.90 126.14,72.71 124.50,72.00 C123.40,71.53 120.64,71.11 118.36,71.07 C113.79,70.99 113.00,70.02 113.00,64.44 L 113.00 61.05 L 127.75 60.75 L 142.50 60.44 L 126.75 60.22 L 112.59 60.02 L 127.75 59.77 L 144.50 59.50 L 144.80 53.10 C144.97,49.58 144.68,46.28 144.16,45.76 C143.62,45.22 127.82,44.89 104.01,44.91 C126.46,44.78 143.56,44.36 142.50,43.94 C139.36,42.69 58.00,42.79 58.00,44.05 C58.00,44.63 66.83,44.92 85.78,44.95 L 56.50 45.02 L 56.50 60.50 L 72.75 60.77 L 89.00 61.05 L 89.00 71.14 L 81.50 71.53 C70.76,72.09 64.71,72.99 63.50,74.22 C62.82,74.91 63.79,75.00 66.50,74.49 C68.70,74.08 74.78,73.15 80.00,72.43 L 89.00 71.18 L 89.00 71.72 L 81.27 72.42 C74.66,73.02 65.90,74.51 57.33,76.50 C56.13,76.77 53.77,78.16 52.08,79.59 C49.10,82.10 49.00,82.43 49.04,90.34 L 49.08 98.50 L 52.79 100.90 C57.54,103.96 68.94,106.96 76.00,106.99 C79.03,107.01 83.19,107.30 85.25,107.64 L 89.00 108.26 L 89.00 108.68 C88.97,108.64 88.94,108.60 88.90,108.57 C88.06,107.73 77.51,106.74 78.29,107.57 C78.73,108.04 81.20,108.68 83.79,109.00 C86.88,109.39 88.52,109.46 89.00,109.19 L 89.00 135.00 L 99.58 135.00 C91.03,135.00 88.97,135.26 89.79,136.25 ZM 84.00 98.94 C83.73,98.92 83.46,98.89 83.19,98.87 C84.13,98.77 83.84,98.57 82.50,98.00 C79.72,96.81 77.76,96.81 78.50,98.00 C78.59,98.14 78.74,98.27 78.95,98.38 C72.23,97.52 65.67,96.19 60.52,94.76 C60.70,94.60 60.72,94.35 60.50,94.00 C60.16,93.45 58.90,93.01 57.69,93.02 C56.44,93.02 56.00,93.12 56.28,93.45 C53.93,92.62 52.15,91.80 51.15,91.04 C52.17,91.65 52.71,91.32 53.26,89.81 C53.70,88.64 53.86,87.90 53.71,87.58 C57.60,86.13 64.47,84.43 72.67,82.98 C83.40,81.08 87.08,80.36 88.34,81.79 C89.05,82.59 89.00,84.07 89.00,86.39 C89.00,92.81 89.31,93.01 99.33,92.99 C110.75,92.96 111.00,92.81 111.00,85.77 L 111.00 79.77 L 112.33 80.06 C111.12,80.30 111.00,81.42 111.00,86.06 C111.00,89.84 111.38,91.89 112.00,91.50 C112.55,91.16 113.00,88.97 113.00,86.64 C113.00,84.31 113.54,81.86 114.20,81.20 C114.46,80.94 114.63,80.73 114.70,80.57 C117.24,81.03 123.24,82.01 129.26,82.92 C132.29,83.38 135.03,83.87 137.45,84.39 C137.72,84.73 139.16,85.39 141.01,86.00 C146.10,87.68 147.70,89.45 146.00,91.50 C145.19,92.47 145.19,92.95 145.71,92.92 C144.98,93.22 144.17,93.52 143.28,93.81 C144.19,93.18 143.94,93.03 142.31,93.02 C141.10,93.01 139.84,93.45 139.50,94.00 C139.22,94.46 139.34,94.75 139.70,94.88 C136.51,95.74 132.73,96.55 128.64,97.25 L 123.50 97.22 C120.20,97.21 116.38,97.56 115.00,98.00 C112.86,98.68 113.06,98.80 116.46,98.83 C115.53,98.91 114.61,98.99 113.68,99.05 C99.89,100.06 95.99,100.04 84.00,98.94 ZM 135.49 75.00 C136.60,75.01 139.23,75.84 141.94,76.89 C139.99,76.22 137.81,75.58 135.49,75.00 ZM 149.33 88.92 C149.53,89.16 149.66,89.39 149.74,89.62 C149.96,90.33 149.24,91.12 147.79,91.93 C147.99,91.80 148.19,91.66 148.40,91.50 C149.78,90.45 150.02,89.90 149.33,88.92 ZM 150.74 84.20 C150.92,85.64 151.00,87.52 151.00,89.99 C151.00,91.45 150.99,92.64 150.96,93.63 C150.99,92.68 150.99,91.53 150.98,90.13 C150.98,87.94 150.89,85.81 150.74,84.20 ZM 112.62 107.93 L 111.00 108.25 L 111.00 108.12 L 112.62 107.93 ZM 50.43 89.34 C50.52,89.22 50.67,89.08 50.85,88.95 C50.68,89.09 50.54,89.22 50.43,89.34 Z" fill="rgba(1,146,146,1)"/>
<path d="M 89.79 136.25 C88.97,135.26 91.03,135.00 99.58,135.00 C112.55,135.00 112.62,136.66 99.66,137.16 C93.46,137.40 90.52,137.13 89.79,136.25 ZM 111.06 121.88 L 111.00 108.25 L 114.12 107.62 C115.84,107.28 118.66,107.01 120.38,107.02 C122.76,107.03 123.14,107.26 122.00,108.00 C121.18,108.53 118.81,108.98 116.75,108.98 C114.47,108.99 112.96,109.49 112.91,110.25 C112.86,110.94 112.89,115.78 112.98,121.00 C113.06,126.22 112.68,131.62 112.13,133.00 C111.38,134.86 111.11,132.04 111.06,121.88 ZM 83.79 109.00 C81.20,108.68 78.73,108.04 78.29,107.57 C77.51,106.74 88.06,107.73 88.90,108.57 C89.78,109.45 88.38,109.57 83.79,109.00 ZM 148.25 99.97 C150.83,97.96 151.00,97.36 151.00,89.99 C151.00,84.35 150.58,81.72 149.50,80.64 C147.89,79.03 137.86,75.00 135.46,75.00 C134.66,75.00 134.00,74.55 134.00,74.00 C134.00,72.57 135.09,72.73 141.66,75.13 C144.87,76.31 148.67,78.49 150.11,79.99 C152.34,82.32 152.72,83.63 152.78,89.11 C152.86,96.01 151.51,99.20 147.75,101.02 C146.03,101.85 146.15,101.61 148.25,99.97 ZM 78.50 98.00 C77.76,96.81 79.72,96.81 82.50,98.00 C84.29,98.77 84.21,98.87 81.81,98.93 C80.33,98.97 78.84,98.55 78.50,98.00 ZM 115.00 98.00 C116.38,97.56 120.20,97.21 123.50,97.22 L 129.50 97.25 L 125.00 98.05 C122.53,98.49 118.70,98.84 116.50,98.83 C113.07,98.80 112.85,98.69 115.00,98.00 ZM 57.00 94.00 C55.78,93.21 55.91,93.03 57.69,93.02 C58.90,93.01 60.16,93.45 60.50,94.00 C61.29,95.27 58.97,95.27 57.00,94.00 ZM 139.50 94.00 C139.84,93.45 141.10,93.01 142.31,93.02 C144.09,93.03 144.22,93.21 143.00,94.00 C141.03,95.27 138.71,95.27 139.50,94.00 ZM 146.00 91.50 C147.70,89.45 146.10,87.68 141.01,86.00 C138.80,85.27 137.19,84.48 137.43,84.24 C138.20,83.47 147.80,87.05 149.07,88.59 C150.06,89.78 149.93,90.34 148.40,91.50 C145.90,93.39 144.43,93.39 146.00,91.50 ZM 50.99 90.94 C49.71,90.10 49.77,89.76 51.43,88.49 C53.78,86.69 54.29,87.05 53.26,89.81 C52.68,91.40 52.12,91.68 50.99,90.94 ZM 111.00 86.06 C111.00,80.48 111.18,80.00 113.20,80.00 C114.91,80.00 115.13,80.27 114.20,81.20 C113.54,81.86 113.00,84.31 113.00,86.64 C113.00,88.97 112.55,91.16 112.00,91.50 C111.38,91.89 111.00,89.84 111.00,86.06 ZM 196.12 77.49 C194.96,75.51 194.00,73.46 194.00,72.95 C194.00,72.43 192.43,70.26 190.50,68.13 C188.57,66.00 187.00,63.50 187.00,62.56 C187.00,61.63 186.53,60.00 185.96,58.93 C185.40,57.87 185.11,57.00 185.33,57.00 C186.06,57.00 199.17,80.17 198.70,80.63 C198.45,80.88 197.29,79.47 196.12,77.49 ZM 63.50 74.22 C64.71,72.99 70.76,72.09 81.50,71.53 L 89.50 71.11 L 80.00 72.43 C74.78,73.15 68.70,74.08 66.50,74.49 C63.79,75.00 62.82,74.91 63.50,74.22 ZM 116.25 72.26 L 111.00 71.90 L 111.00 65.95 L 111.00 60.00 L 126.75 60.22 L 142.50 60.44 L 127.75 60.75 L 113.00 61.05 L 113.00 64.44 C113.00,70.02 113.79,70.99 118.36,71.07 C120.64,71.11 123.40,71.53 124.50,72.00 C126.75,72.97 126.44,72.98 116.25,72.26 ZM 58.00 44.05 C58.00,42.79 139.36,42.69 142.50,43.94 C143.60,44.38 125.04,44.82 101.25,44.92 C71.60,45.04 58.00,44.77 58.00,44.05 Z" fill="rgba(17,140,140,1)"/>
</g>
</svg>