
<svg xmlns="http://www.w3.org/2000/svg" width="500" height="500" viewBox="0 0 500 500">
<g>
<path d="M 230.50 478.39 C159.68,470.98 98.74,434.87 60.06,377.39 C35.36,340.68 23.53,302.79 22.31,256.50 C21.52,226.51 24.33,205.88 32.94,178.50 C45.13,139.71 69.32,103.49 101.00,76.61 C144.35,39.81 193.28,22.00 251.02,22.00 C292.70,22.00 330.87,31.95 364.82,51.67 C419.03,83.14 457.13,133.88 472.47,195.00 C477.31,214.31 478.47,224.91 478.47,250.00 C478.47,275.09 477.31,285.69 472.47,305.00 C457.26,365.60 420.17,415.47 366.67,447.21 C342.03,461.84 316.48,471.15 287.50,476.08 C275.87,478.05 240.87,479.47 230.50,478.39 ZM 175.55 347.25 C220.51,300.87 219.55,301.77 228.45,297.40 C236.36,293.52 236.45,293.50 248.50,293.50 C260.49,293.50 260.68,293.54 268.25,297.28 C275.29,300.76 278.97,304.05 313.91,338.03 L 351.92 375.00 L 374.20 375.00 L 396.49 375.00 L 348.50 326.93 C322.10,300.48 297.73,276.85 294.35,274.41 C280.98,264.75 267.51,260.64 249.50,260.72 C235.32,260.79 224.72,263.46 211.55,270.28 C204.40,273.98 200.87,277.03 180.00,297.55 C151.95,325.13 113.40,363.62 107.18,370.25 L 102.73 375.00 L 125.69 375.00 L 148.65 375.00 L 175.55 347.25 ZM 267.29 238.37 C277.20,236.11 288.77,231.06 296.23,225.72 C301.25,222.13 349.95,173.30 389.21,132.48 L 395.93 125.50 L 374.14 125.23 L 352.35 124.96 L 315.43 161.80 C282.04,195.11 277.82,198.98 271.40,202.18 C257.11,209.29 244.53,209.39 230.16,202.51 C224.02,199.56 219.68,195.74 192.55,169.34 C175.68,152.93 158.35,136.23 154.03,132.23 L 146.18 124.96 L 124.42 125.23 L 102.67 125.50 L 152.08 173.88 C179.26,200.49 203.98,223.94 207.00,225.99 C215.25,231.59 224.41,235.93 232.37,238.02 C241.56,240.43 257.52,240.59 267.29,238.37 Z" fill="rgba(22,25,28,1)"/>
</g>
</svg>